<svg version="1.2" xmlns="http://www.w3.org/2000/svg" viewBox="0 0 1040 280" width="1040" height="280">
	<title>fonts-color</title>
	<style>
		.s0 { fill: #7b8877 } 
	</style>
	<path id="19/04/25" class="s0" aria-label="19/04/25"  d="m4.5 51.3v8.2h46.4v177.5h8.7v-185.7zm158-1.1c-34.8 0-60.1 21.8-60.1 55.2 0 33.2 24.3 54.4 61.1 54.4 29.8 0 54-15.9 60.1-43.5 2.4 10.8 2.6 21.5 2.6 28.6 0 56.5-27.9 84.9-71.1 84.9-13.9 0-27.1-2.4-36.3-8.2l-4 7.2c11.1 6.9 25.3 9.3 40.6 9.3 47.7 0 79.8-31.9 79.8-94.5 0-57.8-24.5-93.4-72.7-93.4zm1.8 101.9c-32.9 0-52.9-18.6-52.9-47 0-28.4 20.8-46.9 51.1-46.9 37.1 0 56.1 23.8 56.1 46.4 0 26.5-22.1 47.5-54.3 47.5zm75.1 111.4h8.2l86.9-249.9h-8.2zm167.8-25.5c42.1 0 71.1-36.6 71.1-93.9 0-57.3-29-94-71.1-94-41.9 0-71.1 36.7-71.1 94 0 57.3 29.2 93.9 71.1 93.9zm0-8.2c-36.9 0-62.2-32.4-62.2-85.7 0-53.4 25.3-85.7 62.2-85.7 37.1 0 62.4 32.3 62.4 85.7 0 53.3-25.3 85.7-62.4 85.7zm252.9-54.4h-40.1v-47.2h-8.7v47.2h-94.3l100.6-124.2h-10.2l-102 125.8v6.3h105.9v53.6h8.7v-53.6h40.1zm6.3 88.1h8.1l87-249.9h-8.2zm111.4-34.8l71.9-72.9c24.2-24.5 29.8-39.9 29.8-57.4 0-29.9-22.4-48.3-57.7-48.3-27.1 0-47.9 8.8-61.6 24.7l6 5.9c12.9-15.2 30.8-22.3 55.3-22.3 32.2 0 49.3 15.9 49.3 40.6 0 15.1-4.8 28.6-27.4 51.4l-79 80.2v6.3h124.8v-8.2zm179.9-98.2h-28.4l7.9-71.1h87.7v-8.2h-95.1l-9.7 87.6h35.8c52.7 0 69.5 17 69.5 45.6 0 26.3-17.6 45.4-53.7 45.4-26.1 0-48.2-10.4-58.8-23.9l-5 6.4c11.9 15.1 36.7 25.7 63.8 25.7 41.9 0 62.7-23.3 62.7-53.6 0-32.9-20.3-53.9-76.7-53.9z"/>
</svg>