<svg version="1.2" xmlns="http://www.w3.org/2000/svg" viewBox="0 0 2357 2653" width="2357" height="2653">
	<title>Group_361_1</title>
	<style>
		.s0 { fill: #7b8877 } 
		.s1 { fill: #798775 } 
	</style>
	<path id="Сухроб" class="s0" aria-label="Сухроб"  d="m314.6 715.6c61.7 0 116.4-22.9 150.9-60.2l-11.5-16.3c-34 36-80 56.2-137.6 56.2-108.9 0-165.4-67.3-165.4-166.7 0-138.7 85.9-255.8 222.4-255.8 56.4 0 98.5 18.3 125 53.7l13.8-13.8c-27.1-38.6-76-60.2-137.7-60.2-150.9 0-243.1 128.9-243.1 276.7 0 111.2 65.1 186.4 183.2 186.4zm495.4-342.1l-180.9 315.3-70.8-315.3h-19.6l76.6 337.5-28.8 50.4c-27.6 47.1-49.5 61.5-77.2 61.5-23.6 0-41.5-8.5-54.1-26.8l-12.7 15.7c13.8 19.6 39.2 30 65.1 30 36.9 0 62.8-16.3 95.6-73.2l227.6-395.1zm284.5 0h-23l-127.3 149.2-76.6-149.2h-20.8l84.1 164.2-150.9 175.3h24.2l135.9-159.6 81.3 159.6h21.3l-90.5-174zm226.4-2.6c-57.6 0-104.8 30.7-133.6 79.8l13.8-77.2h-19l-81.8 466.4h19l39.8-225c11.5 63.4 54.1 100 120.9 100 98.5 0 169.4-87 169.4-204 0-86.4-50.7-140-128.5-140zm-39.7 324.4c-70.9 0-112.4-43.8-112.4-120.3 0-106.6 62.8-183.8 148.7-183.8 71.4 0 112.9 43.8 112.9 120.3 0 106-63.4 183.8-149.2 183.8zm364.6 19.6c99.1 0 169.9-87 169.9-204 0-85.7-50.1-140-129.6-140-99.1 0-169.9 87.6-169.9 204.7 0 85.7 50.1 139.3 129.6 139.3zm2.3-19.6c-71.4 0-112.9-43.8-112.9-120.3 0-106 63.4-183.8 149.2-183.8 70.9 0 112.3 43.8 112.3 120.3 0 106.6-62.8 183.8-148.6 183.8zm428-312.6c-66.2 0-122.1 37.3-157.8 105.3 21.3-109.2 87.5-189.7 176.2-212.6l132.5-33.3-2.3-20.3-134.2 34c-114.6 29.4-195.3 152.4-195.3 295 0 104.6 50.1 166.8 132.5 166.8 96.2 0 169.4-85.7 169.4-198.2 0-85.1-45.5-136.7-121-136.7zm-47.2 315.2c-70.3 0-114.7-53.6-114.7-138.6 0-79.8 77.2-156.3 158.5-156.3 66.2 0 104.8 43.1 104.8 118.3 0 99.5-64.5 176.6-148.6 176.6z"/>
	<path id="Милена" class="s0" aria-label="Милена"  d="m466.7 1697.2l-245.9 364.9-123.3-364.9h-16.1l-80.7 457.8h19l73.2-414.7 119.2 351.3h9.8l234.5-346.7-72 410.1h19l80.6-457.8zm77.8 457.8h18.4l277.1-306.1-54.1 306.1h19l59.9-339.5h-18.5l-276.5 306.1 54.2-306.1h-19.6zm474.1-339.4l-25.4 112.5c-33.4 149.8-60.5 209.9-101.3 209.9-2.9 0-8.1-1.3-13.9-2.6l-4.6 19c8.7 2.6 14.4 3.9 21.3 3.9 49 0 80.1-64.7 115.8-225.6l21.3-97.5h166.5l-56.4 319.8h19l59.9-339.4zm553 172.7c1.7-10.5 2.8-22.9 2.8-35.4 0-86.9-47.2-139.9-123.8-139.9-92.7 0-161.3 87.6-161.3 203.4 0 88.9 50.1 140.6 133.6 140.6 48.4 0 92.2-20.3 117-53l-9.2-15c-24.2 30.1-62.2 48.4-106 48.4-76.6 0-117-43.2-117-121.7 0-9.1 0.6-18.3 1.2-27.4zm-121.6-155.7c62.8 0 107.2 41.2 107.2 116.4 0 6.6-0.6 13.8-1.2 20.9h-244.2c14.4-81.7 68.5-137.3 138.2-137.3zm198.8 322.4h19l28.8-161.5h215.4l-28.8 161.5h19l59.9-339.4h-19l-28.2 158.9h-215.4l28.2-158.9h-19zm688.9-339.5l-17.2 97.5c-11.6-63.5-53.6-100.1-121-100.1-98.5 0-169.4 87.7-169.4 204.7 0 86.4 50.7 139.4 128.5 139.4 57.6 0 104.8-30.1 133.6-79.2l-13.8 77.2h19l59.3-339.5zm-175.6 321.8c-71.5 0-113-43.8-113-120.3 0-106 63.4-183.8 149.2-183.8 70.9 0 112.4 43.8 112.4 120.3 0 106.7-62.8 183.8-148.6 183.8z"/>
	<path class="s1" d="m1217 1152.1l15.8-5.3q2.1-27.1 19-47.6 17.2-20.8 37.9-20.8 9.1 0 15.1 6 6.3 5.6 6.3 14.8 0 34.6-73.4 53.6 2.1 19.8 2.8 34.6 1.1 14.5 2.1 24 21.1-21.2 29.5-31.4 8.8-10.6 17.2-19.4 8.4-8.8 19-15.5 10.9-6.7 21.4-6.7 9.1 0 14.7 4.2 5.7 4.2 5.7 11.6 0 9.9-9.5 9.9-10.9 0-10.9-10.6 0-7.4 1.4-10.2-15.4 0-28.1 11.6-12.6 11.3-24.2 26.1-5.6 7.1-15.1 16.6-9.1 9.2-20 20.1 1.7 36.4-4.2 67.4-6 31.4-34.1 57.5-17.2 16.2-39.3 28.2-21.8 12.4-44.6 18.7-23.1 6.7-44.2 6.7-25.3 0-39-10.9-14-10.9-14-29.6 0-17.7 11.2-31.1 11.2-13.4 31.3-19.7 20-6 45.2-2.5l-1.4 4.9q-16.1-1.4-18.2-1.4-16.9 0-31.6 7.1-14.8 7-23.2 18.3-8.4 11.7-8.4 25.1 0 15.8 15.1 25 14.7 9.5 34.7 9.5 29.5 0 56.2-13 26.3-13.1 58.6-42.3 29.9-27.2 38-55.4 8-27.9 5.9-56.8-17.2 12.3-29.1 18.7-11.6 6.3-21.4 9.1-9.5 2.5-20.7 2.5-16.5 0-27.1-8.5-10.9-8.8-10.9-22.5 0-21.9 20.4-38.8 20.4-17 68.1-31.8zm20 64.9q-4.2-34.5-4.2-62.8-42.5 13.4-63.5 38.1-20.7 24.7-20.7 39.9 0 16.6 17.9 16.6 29.4 0 70.5-31.8zm1.4-70.2q35.1-10.6 51.3-20.8 16.5-10.2 16.5-26.1 0-4.9-2.1-8.5-2.1-3.8-6-6-3.5-2.1-8.4-2.1-19 0-34.1 18.4-14.7 18-17.2 45.1z"/>
</svg>